<svg xmlns="http://www.w3.org/2000/svg" id="svg5" width="512" height="512"><path id="path1" d="M74.912 90.613c-35.114 0-63.973 30.279-63.973 67.114V383.67c0 36.836 28.86 67.112 63.973 67.112h362.176c35.114 0 63.973-30.276 63.973-67.112V157.726c0-36.834-28.86-67.113-63.973-67.113h-29.15l20.336 39.8h8.815c14.751 0 26.034 11.84 26.034 27.314V383.67c0 15.475-11.283 27.31-26.034 27.31H74.912c-14.751 0-26.034-11.835-26.034-27.31V157.726c0-15.474 11.283-27.313 26.034-27.313h8.815l25.337-39.8Z" style="baseline-shift:baseline;display:inline;overflow:visible;fill:#3084c3;stroke:#3084c3;stroke-width:12.1432;stroke-linecap:round;stroke-dasharray:none;stroke-opacity:1;paint-order:markers fill stroke;stop-color:#000"/><path id="path2" d="M253.278 363.76q-28.966 0-54.357-10.73-25.032-11.085-43.986-30.396-18.595-19.669-29.324-45.774-10.37-26.106-10.37-56.503 0-30.039 10.37-55.788 10.729-26.105 29.324-45.415 18.954-19.669 43.986-30.755 25.033-11.087 54.357-11.086 27.537 0 47.204 7.152 20.027 7.152 40.054 23.602 2.86 2.146 4.29 4.65 1.789 2.145 2.146 4.648.716 2.145.716 5.364 0 6.794-5.006 11.444-4.65 4.29-11.445 5.007-6.794.357-13.231-4.65-13.231-11.443-27.537-17.522-13.946-6.08-37.19-6.08-21.1 0-39.695 8.582-18.596 8.582-32.901 23.603-13.946 15.02-21.814 35.046-7.867 19.67-7.867 42.198 0 22.887 7.867 42.914 7.868 19.668 21.814 34.688 14.305 15.019 32.9 23.602 18.596 8.225 39.695 8.225 18.239 0 34.33-6.08 16.45-6.437 31.47-17.522 6.438-4.65 12.517-3.935 6.437.358 10.729 5.008 4.291 4.291 4.291 12.158 0 3.577-1.43 7.152-1.432 3.219-4.292 6.08-19.31 15.377-41.483 23.244-21.814 7.868-46.132 7.868z" style="fill:#07b843;stroke:#07b843;stroke-width:44.3331"/><path id="path3" d="M378.895 171.41q.827-.68 1.905-.577 1.078.105 1.793.972l7.562 9.183 23.993 7.688q1.193.406 1.66 1.214.498.845.303 1.734-.202.959-.95 1.575-.67.552-1.324.562-.621.048-1.43-.212l-23.09-7.638 1.575-1.298 3.043 24.415q.074.733-.165 1.325-.206.633-.837 1.152-.71.585-1.604.463-.862-.084-1.558-.769-.663-.644-.807-1.781l-2.867-25.087-7.562-9.182q-.715-.868-.61-1.946t.972-1.791z" style="fill:#07b843;stroke:#07b843;stroke-width:5.54164"/><path id="path4" d="M383.738 176.316a67.56 41.255 46.881 0 1-76.39-21.6 67.56 41.255 46.881 0 1-15.59-77.38 67.56 41.255 46.881 0 1 76.39 21.6 67.56 41.255 46.881 0 1 15.591 77.38" style="fill:#07b843;stroke-width:5.38654"/><path id="path5" d="M367.348 120.546a11.083 11.083 0 0 1-11.083 11.083 11.083 11.083 0 0 1-11.083-11.083 11.083 11.083 0 0 1 11.083-11.084 11.083 11.083 0 0 1 11.083 11.084" style="fill:#fff;stroke-width:1.04466"/></svg>